# xmcd
#
# Track frame offsets: 
#        150
#        14792
#        31207
#        46399
#        61054
#        81316
#        100158
#        117504
#        136015
#        156437
#        175433
#        194862
#        210577
#        229262
#        248372
#
# Disc length: 3561 seconds
#
# Revision: 2
# Processed by: cddbd v1.5.2PL0 Copyright (c) Steve Scherf et al.
# Submitted via: ExactAudioCopy v1.0b3
#
DISCID=d10de70f
DTITLE=Howard Tate - Blue Day
DYEAR=2008
DGENRE=Blues
TTITLE0=Miss Beehive
TTITLE1=40 Days
TTITLE2=Blue Day
TTITLE3=If God Brought You To It
TTITLE4=Improvising
TTITLE5=Good 'N' Blue
TTITLE6=Hope Springs Eternal
TTITLE7=Buried Treasure
TTITLE8=First Class
TTITLE9=If I Was White
TTITLE10=Live Like A Millionaire
TTITLE11=Back To My Old Ways Again
TTITLE12=Stalking My Woman
TTITLE13=Your Move
TTITLE14=If You're Giving I'm Takin'
EXTD=
EXTT0=
EXTT1=
EXTT2=
EXTT3=
EXTT4=
EXTT5=
EXTT6=
EXTT7=
EXTT8=
EXTT9=
EXTT10=
EXTT11=
EXTT12=
EXTT13=
EXTT14=
PLAYORDER=
